# xmcd
#
# Track frame offsets: 
#        150
#        4430
#        30805
#        44070
#        51417
#        65185
#        67922
#        71512
#        85195
#        107275
#        127652
#        138180
#        149835
#        170890
#        185587
#        199860
#        219045
#        239530
#        241072
#        252265
#        257647
#        276092
#        286822
#        301892
#        323362
#
# Disc length: 4427 seconds
#
# Revision: 16
# Processed by: cddbd v1.5.2PL0 Copyright (c) Steve Scherf et al.
# Submitted via: ExactAudioCopyFreeDBPlugin 1.0
#
DISCID=6a114919
DTITLE=Various Artist - The Rose That Grew From Concrete Vol. 1
DYEAR=2000
DGENRE=Rap
TTITLE0=Tupac Shakur - Tupac Interlude
TTITLE1=Babatunde Olatunji and Sikiru Adepoju - Wake Me When I'm Free
TTITLE2=Mos Def - Can U C The Pride In The Panther (Male Version)
TTITLE3=Sonia Sanchez - When Ure Heart Turns Cold
TTITLE4=Dead Prez - U R Ripping Us Apart!!!
TTITLE5=Jasmine Guy - Tears Of A Teenage Mother
TTITLE6=Reverend Run - God
TTITLE7=Red Rat - And Still I Love You
TTITLE8=Mos Def - Can U C The Pride In The Panther (Female Version)
TTITLE9=Providence And RasDaveed El Harar - If There Be Pain
TTITLE10=Danny Glover, Afeni Shakur and The Cast Of The Lion King - A Ri
TTITLE10=ver That Flows Forever
TTITLE11=Nikki Giovanni - The Rose That Grew From Concrete
TTITLE12=The Outlawz - In The Event Of My Demise ft. Geronimo Ji Jaga
TTITLE13=Tre' from Pharcyde - What Of A Love Unspoken
TTITLE14=Dan Rockett - Sometimes I Cry
TTITLE15=Q-Tip - The Fear In The Heart Of A Man
TTITLE16=Quincy Jones and Mac Mall - Starry Night
TTITLE17=Russell Simmons - What Of Fame
TTITLE18=Rha Goddess - Only 4 The Righteous
TTITLE19=Sarah Jones - Why Must U Be Unfaithful
TTITLE20=4th Avenue Jones' - Wife 4 Life ft. K-Ci
TTITLE21=Malcolm Jamal Warner - Lady Liberty Needs Glasses
TTITLE22=Lamar Antwon Robinson and The IMPACT Repertory Theatre Group - 
TTITLE22=Family Tree
TTITLE23=Lamar Antwon Robinson and The IMPACT Repertory Theatre Group - 
TTITLE23=Thug Blues
TTITLE24=Chief Okena Littlehawk - The Sun and The Moon
EXTD=www.RapMusicGuide.com
EXTT0=
EXTT1=
EXTT2=
EXTT3=
EXTT4=
EXTT5=
EXTT6=
EXTT7=
EXTT8=
EXTT9=
EXTT10=
EXTT11=
EXTT12=
EXTT13=
EXTT14=
EXTT15=
EXTT16=
EXTT17=
EXTT18=
EXTT19=
EXTT20=
EXTT21=
EXTT22=
EXTT23=
EXTT24=
PLAYORDER=
